<svg width="30" height="30" viewBox="0 0 30 30" fill="none" xmlns="http://www.w3.org/2000/svg">
<path d="M15 -3.87436e-06C6.71573 -4.96071e-06 4.96071e-06 6.71572 3.87436e-06 15C2.78801e-06 23.2843 6.71573 30 15 30C23.2843 30 30 23.2843 30 15C30 6.71573 23.2843 -2.78801e-06 15 -3.87436e-06Z" fill="#9D5CD0"/>
<path d="M15 -3.87436e-06C6.71573 -4.96071e-06 4.96071e-06 6.71572 3.87436e-06 15C2.78801e-06 23.2843 6.71573 30 15 30C23.2843 30 30 23.2843 30 15C30 6.71573 23.2843 -2.78801e-06 15 -3.87436e-06Z" stroke="black"/>
<path d="M16 10L11 15L16 20" stroke="white"/>
</svg>
