<svg width="65" height="65" viewBox="0 0 65 65" fill="none" xmlns="http://www.w3.org/2000/svg">
<path d="M30.0001 45.0005C29.6711 45.0024 29.3449 44.9393 29.0403 44.8149C28.7357 44.6905 28.4587 44.5072 28.2251 44.2755L18.2251 34.2755C17.7543 33.8047 17.4899 33.1662 17.4899 32.5005C17.4899 31.8347 17.7543 31.1962 18.2251 30.7255C18.6959 30.2547 19.3343 29.9902 20.0001 29.9902C20.6658 29.9902 21.3043 30.2547 21.7751 30.7255L30.0001 38.9755L45.7251 23.2255C46.1959 22.7547 46.8343 22.4902 47.5001 22.4902C48.1658 22.4902 48.8043 22.7547 49.2751 23.2255C49.7458 23.6962 50.0103 24.3347 50.0103 25.0005C50.0103 25.6662 49.7458 26.3047 49.2751 26.7755L31.7751 44.2755C31.5415 44.5072 31.2645 44.6905 30.9599 44.8149C30.6553 44.9393 30.3291 45.0024 30.0001 45.0005Z" fill="#EA8396"/>
<path d="M32.5 65C26.0721 65 19.7886 63.0939 14.444 59.5228C9.09938 55.9516 4.93378 50.8758 2.47393 44.9372C0.0140817 38.9986 -0.629527 32.464 0.624493 26.1596C1.87851 19.8552 4.97384 14.0642 9.51904 9.51904C14.0642 4.97384 19.8552 1.87851 26.1596 0.624493C32.464 -0.629527 38.9986 0.0140817 44.9372 2.47393C50.8758 4.93378 55.9516 9.09938 59.5228 14.444C63.0939 19.7886 65 26.0721 65 32.5C65 41.1195 61.5759 49.386 55.481 55.481C49.386 61.5759 41.1195 65 32.5 65ZM32.5 5.00001C27.061 5.00001 21.7442 6.61286 17.2218 9.6346C12.6995 12.6563 9.17474 16.9513 7.09333 21.9762C5.01192 27.0012 4.46732 32.5305 5.52842 37.865C6.58951 43.1995 9.20863 48.0995 13.0546 51.9454C16.9005 55.7914 21.8006 58.4105 27.135 59.4716C32.4695 60.5327 37.9988 59.9881 43.0238 57.9067C48.0488 55.8253 52.3437 52.3005 55.3654 47.7782C58.3872 43.2558 60 37.939 60 32.5C60 25.2066 57.1027 18.2118 51.9454 13.0546C46.7882 7.89733 39.7935 5.00001 32.5 5.00001Z" fill="#EA8396"/>
</svg>
